<svg id="Layer_1" data-name="Layer 1" xmlns="http://www.w3.org/2000/svg" xmlns:xlink="http://www.w3.org/1999/xlink" viewBox="0 0 238.1 268.4"><defs><style>.cls-1{fill:#fff;}.cls-2{fill:url(#linear-gradient);}.cls-3{fill:none;stroke:#fff;stroke-miterlimit:10;stroke-width:2.5px;}.cls-4{fill:url(#linear-gradient-2);}</style><linearGradient id="linear-gradient" x1="172.96" y1="135.73" x2="196.48" y2="135.73" gradientUnits="userSpaceOnUse"><stop offset="0" stop-color="#4b4a9e"/><stop offset="1" stop-color="#eb138e"/></linearGradient><linearGradient id="linear-gradient-2" x1="109.42" y1="47.56" x2="109.42" y2="230.05" xlink:href="#linear-gradient"/></defs><rect class="cls-1" width="238.1" height="268.4"/><path class="cls-2" d="M196.48,229.83a8.49,8.49,0,0,1-8.67,8.43l-6.63-.22a8.39,8.39,0,0,0,6.62-8.11L183.45,43.78a8.49,8.49,0,0,0-10.07-8.19l-.42-.48,8.88-1.72a8.51,8.51,0,0,1,10.3,8.24Z"/><path class="cls-3" d="M196.48,229.83a8.49,8.49,0,0,1-8.67,8.43l-6.63-.22a8.39,8.39,0,0,0,6.62-8.11L183.45,43.78a8.49,8.49,0,0,0-10.07-8.19l-.42-.48,8.88-1.72a8.51,8.51,0,0,1,10.3,8.24Z"/><path class="cls-4" d="M182.7,229.71a8.55,8.55,0,0,1-5.82,8.1q-.47.15-1,.27a9.14,9.14,0,0,1-1.9.18L136.73,237V82.65a3.19,3.19,0,0,0-3.18-3.19,3.19,3.19,0,0,0-3.19,3.19V236.79l-47.61-1.61V93.36a3.2,3.2,0,0,0-6.39,0V235l-30.08-1a8.54,8.54,0,0,1-8.42-8.54L36.15,63.28A8.55,8.55,0,0,1,43,54.92l125.1-24.6a8.55,8.55,0,0,1,7.19,1.76l.53.47a8.54,8.54,0,0,1,2.58,6.13Z"/><path class="cls-3" d="M182.7,229.71a8.55,8.55,0,0,1-5.82,8.1q-.47.15-1,.27a9.14,9.14,0,0,1-1.9.18L136.73,237V82.65a3.19,3.19,0,0,0-3.18-3.19,3.19,3.19,0,0,0-3.19,3.19V236.79l-47.61-1.61V93.36a3.2,3.2,0,0,0-6.39,0V235l-30.08-1a8.54,8.54,0,0,1-8.42-8.54L36.15,63.28A8.55,8.55,0,0,1,43,54.92l125.1-24.6a8.55,8.55,0,0,1,7.19,1.76l.53.47a8.54,8.54,0,0,1,2.58,6.13Z"/></svg>